<?xml version="1.0" encoding="utf-8"?>
<!-- Generator: Adobe Illustrator 22.1.0, SVG Export Plug-In . SVG Version: 6.00 Build 0)  -->
<svg version="1.1" id="illustration" xmlns="http://www.w3.org/2000/svg" xmlns:xlink="http://www.w3.org/1999/xlink" x="0px"
	 y="0px" viewBox="0 0 756 934" style="enable-background:new 0 0 756 934;" xml:space="preserve">
<style type="text/css">
	.st0{opacity:0.1;fill:url(#SVGID_1_);enable-background:new    ;}
	.st1{opacity:0.2;fill:url(#SVGID_2_);enable-background:new    ;}
	.st2{fill:#EA9343;}
	.st3{fill:#F2C94C;}
	.st4{opacity:0.15;fill:url(#SVGID_3_);enable-background:new    ;}
	.st5{opacity:7.000000e-02;fill:url(#SVGID_4_);enable-background:new    ;}
	.st6{opacity:0.15;fill:#FFFFFF;enable-background:new    ;}
	.st7{opacity:0.15;fill:url(#SVGID_5_);enable-background:new    ;}
	.st8{opacity:7.000000e-02;fill:url(#SVGID_6_);enable-background:new    ;}
	.st9{opacity:0.2;fill:#FFFFFF;enable-background:new    ;}
	.st10{opacity:0.3;fill:url(#SVGID_7_);enable-background:new    ;}
</style>
<linearGradient id="SVGID_1_" gradientUnits="userSpaceOnUse" x1="543.6518" y1="190.8625" x2="287.1448" y2="446.8636" gradientTransform="matrix(1 0 0 1 0 142)">
	<stop  offset="0" style="stop-color:#FFFFFF"/>
	<stop  offset="1" style="stop-color:#FFFFFF;stop-opacity:0"/>
</linearGradient>
<path class="st0" d="M65.8,0.1l687.8,397l-0.1,536l-687.8-397L65.8,0.1z"/>
<linearGradient id="SVGID_2_" gradientUnits="userSpaceOnUse" x1="236.2316" y1="-200.3775" x2="497.0534" y2="241.4309" gradientTransform="matrix(1 0 0 1 0 142)">
	<stop  offset="0" style="stop-color:#FFFFFF"/>
	<stop  offset="1" style="stop-color:#FFFFFF;stop-opacity:0"/>
</linearGradient>
<path class="st1" d="M65.8,0.1l686.9,396.5v72.7L65.8,72.8V0.1z"/>
<path class="st2" d="M0.9,242.9l177.8,102.6v49.3L0.9,292.2V242.9z"/>
<path class="st3" d="M491.1,517.8l177.8,102.6v49.3L491.1,567.1V517.8z"/>
<linearGradient id="SVGID_3_" gradientUnits="userSpaceOnUse" x1="580.236" y1="560.9513" x2="520.85" y2="663.8373" gradientTransform="matrix(1 0 0 1 0 142)">
	<stop  offset="0" style="stop-color:#FFFFFF"/>
	<stop  offset="1" style="stop-color:#FFFFFF;stop-opacity:0"/>
</linearGradient>
<path class="st4" d="M374.5,584.2l347,200.3v148.9l-347-200.3V584.2z"/>
<linearGradient id="SVGID_4_" gradientUnits="userSpaceOnUse" x1="613.8358" y1="544.1522" x2="554.4498" y2="647.0372" gradientTransform="matrix(1 0 0 1 0 142)">
	<stop  offset="0" style="stop-color:#FFFFFF"/>
	<stop  offset="1" style="stop-color:#FFFFFF;stop-opacity:0"/>
</linearGradient>
<path class="st5" d="M408.1,567.4l347,200.3v148.9l-347-200.3L408.1,567.4z"/>
<path class="st6" d="M400.2,629.3l52.3,30.2v49.3l-52.3-30.2V629.3z"/>
<path class="st6" d="M464.6,668.2l52.3,30.2v49.3l-52.3-30.2L464.6,668.2z"/>
<path class="st6" d="M529,704.7l52.3,30.2v49.3L529,753.9V704.7z"/>
<path class="st6" d="M593.4,743.6l52.3,30.2v49.3l-52.3-30.2V743.6z"/>
<path class="st6" d="M112.2,201.6l394.6,227.8v16.8L112.2,218.5V201.6z"/>
<path class="st6" d="M112.2,235.5L452.7,432v16.8L112.2,252.3V235.5z"/>
<path class="st6" d="M112.2,269l289.7,167.2V453L112.2,285.8V269z"/>
<linearGradient id="SVGID_5_" gradientUnits="userSpaceOnUse" x1="193.8958" y1="322.2349" x2="134.5098" y2="425.1199" gradientTransform="matrix(1 0 0 1 0 142)">
	<stop  offset="0" style="stop-color:#FFFFFF"/>
	<stop  offset="1" style="stop-color:#FFFFFF;stop-opacity:0"/>
</linearGradient>
<path class="st7" d="M17.2,362.3L306.1,529v148.9L17.2,511.2V362.3z"/>
<linearGradient id="SVGID_6_" gradientUnits="userSpaceOnUse" x1="227.4957" y1="305.4349" x2="168.1097" y2="408.3199" gradientTransform="matrix(1 0 0 1 0 142)">
	<stop  offset="0" style="stop-color:#FFFFFF"/>
	<stop  offset="1" style="stop-color:#FFFFFF;stop-opacity:0"/>
</linearGradient>
<path class="st8" d="M50.8,345.5l288.9,166.7v148.9L50.8,494.4V345.5z"/>
<path class="st6" d="M36.9,409.5L266.4,542v16.8L36.9,426.4V409.5z"/>
<path class="st6" d="M36.9,443.4l183.8,106.1v16.8L36.9,460.2V443.4z"/>
<path class="st9" d="M140.6,79.6c0,10.9-6.4,16-14.2,11.5s-14.2-17-14.2-27.8s6.4-16,14.2-11.5S140.6,68.8,140.6,79.6z"/>
<linearGradient id="SVGID_7_" gradientUnits="userSpaceOnUse" x1="195.3354" y1="498.3961" x2="52.8516" y2="698.1471" gradientTransform="matrix(1 0 0 1 0 142)">
	<stop  offset="0" style="stop-color:#FFFFFF"/>
	<stop  offset="1" style="stop-color:#FFFFFF;stop-opacity:0"/>
</linearGradient>
<path class="st10" d="M121.9,652.1c0,19.8-4.4,32.5-13.2,38s-20.6,4-35.4-4.6c-14.8-8.5-26.6-20.6-35.4-36.3
	c-8.8-15.6-13.2-33.4-13.2-53.2s4.4-32.5,13.2-38s20.6-4,35.4,4.6s26.6,20.6,35.4,36.3C117.5,614.5,121.9,632.2,121.9,652.1z
	 M90.9,634.2c0-10.8-1.6-19.5-4.9-26.3s-7.5-11.6-12.6-14.6c-5.3-3.1-9.6-3.1-12.9-0.2c-3.1,3.1-4.7,10-4.7,20.7
	c0,10.8,1.6,19.6,4.7,26.4c3.3,6.8,7.6,11.7,12.9,14.7c5.1,3,9.3,3,12.6,0C89.2,651.9,90.9,644.9,90.9,634.2z M175.4,626.6l38.1,22
	L106.2,806.1l-38.1-22L175.4,626.6z M257.4,837c0,19.8-4.4,32.5-13.2,38s-20.6,4-35.4-4.6c-14.8-8.5-26.6-20.6-35.4-36.3
	c-8.8-15.6-13.2-33.4-13.2-53.2s4.4-32.5,13.2-38s20.6-4,35.4,4.6c14.8,8.5,26.6,20.6,35.4,36.3C253,799.4,257.4,817.2,257.4,837z
	 M226.4,819.1c0-10.8-1.6-19.5-4.9-26.3c-3.3-6.8-7.5-11.6-12.6-14.6c-5.3-3.1-9.6-3.1-12.9-0.2c-3.1,3.1-4.7,10-4.7,20.7
	c0,10.8,1.6,19.6,4.7,26.4c3.3,6.8,7.6,11.7,12.9,14.7c5.1,3,9.3,3,12.6,0C224.7,836.9,226.4,829.9,226.4,819.1z"/>
</svg>
