<svg xmlns="http://www.w3.org/2000/svg" viewBox="0 0 2053.64 625.46" fill='#2eaf7d'>
<g id="Layer_2" data-name="Layer 2"><g id="Layer_1-2" data-name="Layer 1"><path class="cls-1" d="M337.07,365.27l16.78-37.69c16,10.59,38.72,17.82,59.63,17.82,21.16,0,29.42-5.94,29.42-14.72,0-28.65-102.73-7.74-102.73-74.86,0-32.26,26.33-58.59,80-58.59,23.49,0,47.75,5.42,65.56,15.74L470,250.92c-17.3-9.29-34.33-13.94-50.08-13.94-21.42,0-29.17,7.23-29.17,16.26,0,27.62,102.48,7,102.48,73.57,0,31.49-26.33,58.34-80,58.34C383.53,385.15,354.11,377.15,337.07,365.27Z"/><path class="cls-1" d="M552.61,241.37h-55.5V200.84H659v40.53H603.72V381.53H552.61Z"/><path class="cls-1" d="M666.19,291.19c0-54.21,42.59-94,100.41-94S867,237,867,291.19s-42.59,94-100.41,94S666.19,345.4,666.19,291.19Zm149.2,0c0-31.24-21.43-51.63-48.79-51.63S717.81,260,717.81,291.19s21.43,51.62,48.79,51.62S815.39,322.42,815.39,291.19Z"/><path class="cls-1" d="M961.55,316l-19.1,20.39v45.17H891.86V200.84h50.59V276l69.95-75.12h56.28l-73.83,80,77.7,100.67h-59.37Z"/><path class="cls-1" d="M1251.11,381.53l-.51-95.76-46.47,78h-22.71l-46.21-75.37v93.18H1088V200.84h42.08l63.5,104.29,62-104.29h42.07l.52,180.69Z"/><path class="cls-1" d="M1455.29,346.43h-76.4l-14.2,35.1h-52.15l79.77-180.69h50.33l80,180.69h-53.17Zm-15-37.69-23.23-57.82-23.23,57.82Z"/><path class="cls-1" d="M1616.11,333.52h-27.88v48h-51.11V200.84h82.6c49.31,0,80.28,25.56,80.28,66.86,0,26.59-12.91,46.2-35.36,57.05l39,56.78h-54.72Zm.51-92.41h-28.39V294h28.39c21.17,0,31.75-9.81,31.75-26.33C1648.37,250.92,1637.79,241.11,1616.62,241.11Z"/><path class="cls-1" d="M1790.83,316l-19.1,20.39v45.17h-50.6V200.84h50.6V276l70-75.12H1898l-73.82,80,77.7,100.67h-59.37Z"/><path class="cls-1" d="M1947.29,241.37h-55.5V200.84h161.85v40.53H1998.4V381.53h-51.11Z"/><polygon points="295.13 123.07 40.44 377.76 40.44 254.69 295.13 0 295.13 123.07"/><polygon points="254.69 370.77 0 625.46 0 502.39 254.69 247.7 254.69 370.77"/></g></g></svg>